<svg width="128" height="128" viewBox="0 0 128 128" fill="none" xmlns="http://www.w3.org/2000/svg">
  <defs>
    <linearGradient id="ring" x1="20" y1="106" x2="104" y2="20" gradientUnits="userSpaceOnUse">
      <stop stop-color="#2436F3"/>
      <stop offset="1" stop-color="#46E6F2"/>
    </linearGradient>
    <linearGradient id="cubeFront" x1="50" y1="90" x2="77" y2="48" gradientUnits="userSpaceOnUse">
      <stop stop-color="#2436F3"/>
      <stop offset="1" stop-color="#34DDF0"/>
    </linearGradient>
    <linearGradient id="cubeTop" x1="50" y1="37" x2="79" y2="58" gradientUnits="userSpaceOnUse">
      <stop stop-color="#5FF1F4"/>
      <stop offset="1" stop-color="#34DDF0"/>
    </linearGradient>
    <linearGradient id="cubeSide" x1="72" y1="53" x2="88" y2="90" gradientUnits="userSpaceOnUse">
      <stop stop-color="#34DDF0"/>
      <stop offset="1" stop-color="#2A79F4"/>
    </linearGradient>
    <filter id="softGlow" x="10" y="8" width="110" height="112" filterUnits="userSpaceOnUse" color-interpolation-filters="sRGB">
      <feDropShadow dx="0" dy="10" stdDeviation="10" flood-color="#2D73F4" flood-opacity="0.18"/>
    </filter>
  </defs>

  <g filter="url(#softGlow)">
    <path
      fill-rule="evenodd"
      clip-rule="evenodd"
      d="M64 12L103.837 35V81L64 104L24.1628 81V35L64 12ZM64 26.9998L90.8473 42.5V73.5L64 89.0002L37.1527 73.5V42.5L64 26.9998Z"
      fill="url(#ring)"/>

    <path d="M50.4 40.2L64.2 32.2L78 40.2L64.2 48.2L50.4 40.2Z" fill="url(#cubeTop)"/>
    <path d="M50.4 40.2V67.6L64.2 75.6V48.2L50.4 40.2Z" fill="url(#cubeFront)"/>
    <path d="M78 40.2V67.6L64.2 75.6V48.2L78 40.2Z" fill="url(#cubeSide)"/>

    <path
      d="M45 44.5L64.3 33.2L83.6 44.5V66.4L64.3 77.7L45 66.4V44.5Z"
      stroke="url(#ring)"
      stroke-width="3.8"
      stroke-linejoin="round"/>
    <path
      d="M45.8 67.2L64.2 55.9L82.8 67"
      stroke="url(#ring)"
      stroke-width="3.8"
      stroke-linecap="round"
      stroke-linejoin="round"/>

    <path
      d="M63.6 20.8L90.6 37"
      stroke="rgba(255,255,255,0.18)"
      stroke-width="2"
      stroke-linecap="round"/>

    <rect x="79" y="26" width="9" height="9" rx="2" fill="url(#ring)"/>
    <rect x="90" y="17" width="11" height="11" rx="2.2" fill="url(#ring)"/>
    <rect x="97" y="31" width="12.5" height="12.5" rx="2.3" fill="url(#ring)"/>
    <rect x="86.5" y="42.5" width="12" height="12" rx="2.2" fill="url(#ring)"/>
    <rect x="101.5" y="49" width="10" height="10" rx="2" fill="url(#ring)"/>
    <rect x="112.5" y="33.5" width="10.5" height="10.5" rx="2" fill="url(#ring)"/>
    <rect x="107" y="62.5" width="8.5" height="8.5" rx="1.8" fill="url(#ring)"/>
    <rect x="92.5" y="59.5" width="9" height="9" rx="1.9" fill="url(#ring)"/>
  </g>
</svg>
